<?xml version="1.0" encoding="UTF-8" standalone="no"?>
<!DOCTYPE svg PUBLIC "-//W3C//DTD SVG 1.1//EN" "http://www.w3.org/Graphics/SVG/1.1/DTD/svg11.dtd">
<svg width="100%" height="100%" viewBox="0 0 155 120" version="1.1" xmlns="http://www.w3.org/2000/svg" xmlns:xlink="http://www.w3.org/1999/xlink" xml:space="preserve" xmlns:serif="http://www.serif.com/" style="fill-rule:evenodd;clip-rule:evenodd;stroke-linejoin:round;stroke-miterlimit:2;">
    <g transform="matrix(1,0,0,1,-53.0526,-174.681)">
        <g>
            <path d="M91.357,276.633L78.253,276.633L53.053,174.681L63.997,174.681L85.021,265.257L85.309,265.257L106.333,174.681L116.989,174.681L91.357,276.633Z" style="fill-rule:nonzero;"/>
            <g transform="matrix(0.516352,0,0,0.516352,45.9679,94.6807)">
                <path d="M130.813,242.937C130.813,246.873 131.149,250.497 131.821,253.809C132.493,257.121 133.477,260.001 134.773,262.449C136.069,264.897 137.701,266.817 139.669,268.209C141.637,269.601 143.965,270.297 146.653,270.297C150.109,270.297 152.893,269.241 155.005,267.129C157.117,265.017 158.749,262.473 159.901,259.497L167.101,263.673C165.373,267.993 162.805,271.617 159.397,274.545C155.989,277.473 151.645,278.937 146.365,278.937C138.397,278.937 132.205,275.577 127.789,268.857C123.373,262.137 121.165,252.873 121.165,241.065C121.165,235.497 121.741,230.361 122.893,225.657C124.045,220.953 125.701,216.921 127.861,213.561C130.021,210.201 132.661,207.585 135.781,205.713C138.901,203.841 142.381,202.905 146.221,202.905C150.445,202.905 154.021,203.817 156.949,205.641C159.877,207.465 162.253,209.961 164.077,213.129C165.901,216.297 167.221,219.993 168.037,224.217C168.853,228.441 169.261,232.953 169.261,237.753L169.261,242.937L130.813,242.937ZM159.613,235.017C159.613,227.817 158.509,222.033 156.301,217.665C154.093,213.297 150.637,211.113 145.933,211.113C143.149,211.113 140.821,211.953 138.949,213.633C137.077,215.313 135.541,217.377 134.341,219.825C133.141,222.273 132.277,224.889 131.749,227.673C131.221,230.457 130.957,232.905 130.957,235.017L159.613,235.017ZM147.661,194.697L139.597,194.697L152.557,173.961L162.925,173.961L147.661,194.697Z" style="fill-rule:nonzero;"/>
            </g>
            <g transform="matrix(0.516352,0,0,0.516352,39.7717,94.6807)">
                <path d="M196.477,220.761C197.821,214.521 199.885,210.009 202.669,207.225C205.453,204.441 208.621,203.049 212.173,203.049C212.941,203.049 213.517,203.097 213.901,203.193L213.613,212.985C213.229,212.889 212.869,212.817 212.533,212.769C212.197,212.721 211.789,212.697 211.309,212.697C208.909,212.697 206.773,213.513 204.901,215.145C203.029,216.777 201.469,218.889 200.221,221.481C198.973,224.073 198.037,227.025 197.413,230.337C196.789,233.649 196.477,236.937 196.477,240.201L196.477,276.633L186.973,276.633L186.973,223.209C186.973,221.673 186.949,220.017 186.901,218.241C186.853,216.465 186.805,214.737 186.757,213.057C186.709,211.377 186.661,209.841 186.613,208.449C186.565,207.057 186.493,205.977 186.397,205.209L195.613,205.209C195.805,207.033 195.949,209.313 196.045,212.049C196.141,214.785 196.189,217.689 196.189,220.761L196.477,220.761Z" style="fill-rule:nonzero;"/>
            </g>
            <g transform="matrix(0.516352,0,0,0.516352,35.1245,94.6807)">
                <path d="M270.493,241.065C270.493,246.729 269.917,251.865 268.765,256.473C267.613,261.081 265.981,265.065 263.869,268.425C261.757,271.785 259.141,274.377 256.021,276.201C252.901,278.025 249.421,278.937 245.581,278.937C241.741,278.937 238.285,278.025 235.213,276.201C232.141,274.377 229.525,271.785 227.365,268.425C225.205,265.065 223.549,261.081 222.397,256.473C221.245,251.865 220.669,246.729 220.669,241.065C220.669,235.401 221.221,230.217 222.325,225.513C223.429,220.809 225.037,216.777 227.149,213.417C229.261,210.057 231.877,207.465 234.997,205.641C238.117,203.817 241.645,202.905 245.581,202.905C249.421,202.905 252.901,203.817 256.021,205.641C259.141,207.465 261.757,210.057 263.869,213.417C265.981,216.777 267.613,220.809 268.765,225.513C269.917,230.217 270.493,235.401 270.493,241.065ZM260.701,240.921C260.701,236.697 260.389,232.761 259.765,229.113C259.141,225.465 258.205,222.321 256.957,219.681C255.709,217.041 254.149,214.953 252.277,213.417C250.405,211.881 248.173,211.113 245.581,211.113C242.989,211.113 240.733,211.881 238.813,213.417C236.893,214.953 235.333,217.041 234.133,219.681C232.933,222.321 232.021,225.465 231.397,229.113C230.773,232.761 230.461,236.697 230.461,240.921C230.461,245.145 230.773,249.033 231.397,252.585C232.021,256.137 232.933,259.257 234.133,261.945C235.333,264.633 236.893,266.721 238.813,268.209C240.733,269.697 242.989,270.441 245.581,270.441C248.173,270.441 250.429,269.697 252.349,268.209C254.269,266.721 255.829,264.633 257.029,261.945C258.229,259.257 259.141,256.137 259.765,252.585C260.389,249.033 260.701,245.145 260.701,240.921Z" style="fill-rule:nonzero;"/>
            </g>
            <g transform="matrix(0.516352,0,0,0.516352,-57.3944,133.94)">
                <path d="M324.925,276.633L324.925,230.553C324.925,228.345 324.805,226.113 324.565,223.857C324.325,221.601 323.797,219.537 322.981,217.665C322.165,215.793 321.013,214.257 319.525,213.057C318.037,211.857 316.093,211.257 313.693,211.257C311.293,211.257 309.157,211.905 307.285,213.201C305.413,214.497 303.829,216.273 302.533,218.529C301.237,220.785 300.229,223.377 299.509,226.305C298.789,229.233 298.429,232.281 298.429,235.449L298.429,219.177C299.773,214.377 301.981,210.465 305.053,207.441C308.125,204.417 311.965,202.905 316.573,202.905C320.413,202.905 323.509,203.721 325.861,205.353C328.213,206.985 330.013,209.121 331.261,211.761C332.509,214.401 333.349,217.377 333.781,220.689C334.213,224.001 334.429,227.289 334.429,230.553L334.429,276.633L324.925,276.633Z" style="fill-rule:nonzero;"/>
            </g>
            <g transform="matrix(0.516352,0,0,0.516352,-65.6561,133.94)">
                <path d="M367.117,183.321C367.117,185.337 366.493,186.993 365.245,188.289C363.997,189.585 362.509,190.233 360.781,190.233C358.957,190.233 357.445,189.585 356.245,188.289C355.045,186.993 354.445,185.337 354.445,183.321C354.445,181.401 355.045,179.769 356.245,178.425C357.445,177.081 358.957,176.409 360.781,176.409C362.605,176.409 364.117,177.081 365.317,178.425C366.517,179.769 367.117,181.401 367.117,183.321ZM356.029,276.633L356.029,205.209L365.533,205.209L365.533,276.633L356.029,276.633Z" style="fill-rule:nonzero;"/>
            </g>
            <g transform="matrix(0.516352,0,0,0.516352,-71.3359,133.94)">
                <path d="M423.133,311.193L423.133,264.393L422.845,264.393C421.789,268.713 419.797,272.217 416.869,274.905C413.941,277.593 410.317,278.937 405.997,278.937C402.349,278.937 399.109,278.001 396.277,276.129C393.445,274.257 391.069,271.641 389.149,268.281C387.229,264.921 385.789,260.937 384.829,256.329C383.869,251.721 383.389,246.633 383.389,241.065C383.389,235.497 383.893,230.385 384.901,225.729C385.909,221.073 387.349,217.065 389.221,213.705C391.093,210.345 393.421,207.705 396.205,205.785C398.989,203.865 402.205,202.905 405.853,202.905C410.749,202.905 414.565,204.297 417.301,207.081C420.037,209.865 421.981,213.465 423.133,217.881L423.421,217.881L423.421,205.209L432.637,205.209L432.637,311.193L423.133,311.193ZM423.421,240.777C423.421,236.649 423.109,232.761 422.485,229.113C421.861,225.465 420.901,222.321 419.605,219.681C418.309,217.041 416.725,214.953 414.853,213.417C412.981,211.881 410.749,211.113 408.157,211.113C405.565,211.113 403.333,211.881 401.461,213.417C399.589,214.953 398.029,217.041 396.781,219.681C395.533,222.321 394.621,225.465 394.045,229.113C393.469,232.761 393.181,236.649 393.181,240.777C393.181,245.001 393.469,248.913 394.045,252.513C394.621,256.113 395.533,259.257 396.781,261.945C398.029,264.633 399.589,266.745 401.461,268.281C403.333,269.817 405.565,270.585 408.157,270.585C410.653,270.585 412.861,269.817 414.781,268.281C416.701,266.745 418.309,264.633 419.605,261.945C420.901,259.257 421.861,256.113 422.485,252.513C423.109,248.913 423.421,245.001 423.421,240.777Z" style="fill-rule:nonzero;"/>
            </g>
            <g transform="matrix(0.516352,0,0,0.516352,-79.0812,133.94)">
                <path d="M463.741,205.209L463.741,251.289C463.741,253.497 463.861,255.729 464.101,257.985C464.341,260.241 464.869,262.305 465.685,264.177C466.501,266.049 467.629,267.585 469.069,268.785C470.509,269.985 472.477,270.585 474.973,270.585C477.373,270.585 479.509,269.937 481.381,268.641C483.253,267.345 484.837,265.569 486.133,263.313C487.429,261.057 488.437,258.465 489.157,255.537C489.877,252.609 490.237,249.561 490.237,246.393L490.237,205.209L499.741,205.209L499.741,258.633C499.741,260.169 499.765,261.825 499.813,263.601C499.861,265.377 499.909,267.105 499.957,268.785C500.005,270.465 500.053,272.025 500.101,273.465C500.149,274.905 500.221,275.961 500.317,276.633L491.101,276.633C490.909,274.809 490.765,272.601 490.669,270.009C490.573,267.417 490.525,264.969 490.525,262.665L490.237,262.665C488.893,267.465 486.685,271.377 483.613,274.401C480.541,277.425 476.701,278.937 472.093,278.937C468.253,278.937 465.157,278.121 462.805,276.489C460.453,274.857 458.653,272.721 457.405,270.081C456.157,267.441 455.317,264.489 454.885,261.225C454.453,257.961 454.237,254.649 454.237,251.289L454.237,205.209L463.741,205.209Z" style="fill-rule:nonzero;"/>
            </g>
            <g transform="matrix(0.516352,0,0,0.516352,-85.2774,133.94)">
                <path d="M527.821,242.937C527.821,246.873 528.157,250.497 528.829,253.809C529.501,257.121 530.485,260.001 531.781,262.449C533.077,264.897 534.709,266.817 536.677,268.209C538.645,269.601 540.973,270.297 543.661,270.297C547.117,270.297 549.901,269.241 552.013,267.129C554.125,265.017 555.757,262.473 556.909,259.497L564.109,263.673C562.381,267.993 559.813,271.617 556.405,274.545C552.997,277.473 548.653,278.937 543.373,278.937C535.405,278.937 529.213,275.577 524.797,268.857C520.381,262.137 518.173,252.873 518.173,241.065C518.173,235.497 518.749,230.361 519.901,225.657C521.053,220.953 522.709,216.921 524.869,213.561C527.029,210.201 529.669,207.585 532.789,205.713C535.909,203.841 539.389,202.905 543.229,202.905C547.453,202.905 551.029,203.817 553.957,205.641C556.885,207.465 559.261,209.961 561.085,213.129C562.909,216.297 564.229,219.993 565.045,224.217C565.861,228.441 566.269,232.953 566.269,237.753L566.269,242.937L527.821,242.937ZM556.621,235.017C556.621,227.817 555.517,222.033 553.309,217.665C551.101,213.297 547.645,211.113 542.941,211.113C540.157,211.113 537.829,211.953 535.957,213.633C534.085,215.313 532.549,217.377 531.349,219.825C530.149,222.273 529.285,224.889 528.757,227.673C528.229,230.457 527.965,232.905 527.965,235.017L556.621,235.017Z" style="fill-rule:nonzero;"/>
            </g>
        </g>
    </g>
</svg>
